<?xml version="1.0" standalone="no"?>
<!DOCTYPE svg PUBLIC "-//W3C//DTD SVG 20010904//EN"
 "http://www.w3.org/TR/2001/REC-SVG-20010904/DTD/svg10.dtd">
<svg version="1.0" xmlns="http://www.w3.org/2000/svg"
 width="120px" height="72" viewBox="0 0 450.000000 350.000000"
 preserveAspectRatio="xMidYMid meet">
<metadata>
Created by potrace 1.16, written by Peter Selinger 2001-2019
</metadata>
<g transform="translate(0.000000,350.000000) scale(0.100000,-0.100000)"
fill="#000000" stroke="none">
<path d="M425 3481 c-40 -24 -61 -49 -80 -94 -13 -32 -15 -205 -15 -1497 l0
-1460 -165 0 -165 0 0 -138 c0 -129 2 -142 26 -190 19 -37 38 -59 68 -77 l43
-25 2113 0 2113 0 43 25 c30 18 49 40 68 77 24 48 26 61 26 190 l0 138 -165 0
-165 0 0 1463 0 1462 -24 52 c-19 39 -34 57 -65 72 -40 21 -43 21 -1833 21
-1728 0 -1794 -1 -1823 -19z m3415 -1516 l0 -1185 -1590 0 -1590 0 0 1185 0
1185 1590 0 1590 0 0 -1185z m330 -1750 l0 -45 -325 0 -325 0 0 45 0 45 325 0
325 0 0 -45z"/>
<path d="M2079 2785 c-121 -24 -245 -81 -349 -161 -213 -163 -330 -406 -330
-682 1 -280 141 -542 375 -697 148 -99 303 -145 483 -145 528 1 928 490 828
1013 -65 337 -336 608 -673 673 -91 17 -245 17 -334 -1z m277 -301 c49 -26
101 -100 110 -160 19 -130 -83 -247 -216 -247 -94 0 -160 46 -201 137 -48 109
11 242 126 284 44 17 135 9 181 -14z m-4 -685 c78 -40 127 -135 114 -223 -4
-25 -21 -66 -39 -93 -43 -63 -93 -88 -177 -88 -84 0 -134 25 -177 88 -128 190
74 420 279 316z"/>
</g>
</svg>
